<svg width="29" height="29" viewBox="0 0 29 29" fill="none" xmlns="http://www.w3.org/2000/svg">
<rect width="29" height="29" fill="#363636"/>
<path d="M-7552.19 -658C-7552.19 -659.105 -7551.29 -660 -7550.19 -660H2525.81C2526.92 -660 2527.81 -659.105 2527.81 -658V714C2527.81 715.105 2526.92 716 2525.81 716H-7550.19C-7551.29 716 -7552.19 715.105 -7552.19 714V-658Z" fill="#404040"/>
<g clip-path="url(#clip0_9_38)">
<rect width="1440" height="925" transform="translate(-440.687 -434.5)" fill="#F4F4F4"/>
<g clip-path="url(#clip1_9_38)">
<rect width="1440" height="925" transform="translate(-440.687 -434.5)" fill="#120D0E"/>
</g>
<mask id="path-3-inside-1_9_38" fill="white">
<path d="M-51.6865 -6.5C-51.6865 -9.81371 -49.0002 -12.5 -45.6865 -12.5H822.313C825.627 -12.5 828.313 -9.81371 828.313 -6.5V42.5H-51.6865V-6.5Z"/>
</mask>
<path d="M-51.6865 -6.5C-51.6865 -9.81371 -49.0002 -12.5 -45.6865 -12.5H822.313C825.627 -12.5 828.313 -9.81371 828.313 -6.5V42.5H-51.6865V-6.5Z" fill="#FFE873" fill-opacity="0.2"/>
<path d="M-52.6865 -6.5C-52.6865 -10.366 -49.5525 -13.5 -45.6865 -13.5H822.313C826.179 -13.5 829.313 -10.366 829.313 -6.5H827.313C827.313 -9.26142 825.075 -11.5 822.313 -11.5H-45.6865C-48.4479 -11.5 -50.6865 -9.26142 -50.6865 -6.5H-52.6865ZM828.313 42.5H-51.6865H828.313ZM-52.6865 42.5V-6.5C-52.6865 -10.366 -49.5525 -13.5 -45.6865 -13.5V-11.5C-48.4479 -11.5 -50.6865 -9.26142 -50.6865 -6.5V42.5H-52.6865ZM822.313 -13.5C826.179 -13.5 829.313 -10.366 829.313 -6.5V42.5H827.313V-6.5C827.313 -9.26142 825.075 -11.5 822.313 -11.5V-13.5Z" fill="#FFE873" mask="url(#path-3-inside-1_9_38)"/>
<rect x="28.4536" y="28.7881" width="28" height="28" rx="4" transform="rotate(-180 28.4536 28.7881)" fill="#C8F324" fill-opacity="0.2"/>
<mask id="mask0_9_38" style="mask-type:alpha" maskUnits="userSpaceOnUse" x="0" y="0" width="29" height="29">
<rect x="28.4536" y="28.7881" width="28" height="28" transform="rotate(-180 28.4536 28.7881)" fill="#D9D9D9"/>
</mask>
<g mask="url(#mask0_9_38)">
</g>
<mask id="mask1_9_38" style="mask-type:alpha" maskUnits="userSpaceOnUse" x="6" y="7" width="17" height="16">
<rect x="6.45361" y="7" width="16" height="16" fill="#D9D9D9"/>
</mask>
<g mask="url(#mask1_9_38)">
<path d="M12.6201 21.6668L12.3534 19.5335C12.209 19.4779 12.0729 19.4113 11.9451 19.3335C11.8173 19.2557 11.6923 19.1724 11.5701 19.0835L9.58675 19.9168L7.75342 16.7502L9.47008 15.4502C9.45897 15.3724 9.45342 15.2974 9.45342 15.2252V14.7752C9.45342 14.7029 9.45897 14.6279 9.47008 14.5502L7.75342 13.2502L9.58675 10.0835L11.5701 10.9168C11.6923 10.8279 11.8201 10.7446 11.9534 10.6668C12.0868 10.5891 12.2201 10.5224 12.3534 10.4668L12.6201 8.3335H16.2868L16.5534 10.4668C16.6979 10.5224 16.834 10.5891 16.9618 10.6668C17.0895 10.7446 17.2145 10.8279 17.3368 10.9168L19.3201 10.0835L21.1534 13.2502L19.9201 14.1835C19.6756 14.0613 19.4256 13.9585 19.1701 13.8752C18.9145 13.7918 18.6423 13.7335 18.3534 13.7002L19.4034 12.9002L18.7534 11.7668L17.1034 12.4668C16.859 12.2113 16.5895 11.9974 16.2951 11.8252C16.0006 11.6529 15.6812 11.5224 15.3368 11.4335L15.1201 9.66683H13.8034L13.5701 11.4335C13.2256 11.5224 12.9062 11.6529 12.6118 11.8252C12.3173 11.9974 12.0479 12.2057 11.8034 12.4502L10.1534 11.7668L9.50342 12.9002L10.9368 13.9668C10.8812 14.1335 10.8423 14.3002 10.8201 14.4668C10.7979 14.6335 10.7868 14.8113 10.7868 15.0002C10.7868 15.1779 10.7979 15.3502 10.8201 15.5168C10.8423 15.6835 10.8812 15.8502 10.9368 16.0168L9.50342 17.1002L10.1534 18.2335L11.8034 17.5335C11.9923 17.7224 12.1951 17.8918 12.4118 18.0418C12.6284 18.1918 12.8645 18.3168 13.1201 18.4168C13.1312 19.0502 13.2618 19.6446 13.5118 20.2002C13.7618 20.7557 14.0979 21.2446 14.5201 21.6668H12.6201ZM13.3034 17.0168C13.3701 16.7946 13.4506 16.5807 13.5451 16.3752C13.6395 16.1696 13.7479 15.9724 13.8701 15.7835C13.7479 15.6946 13.6534 15.5807 13.5868 15.4418C13.5201 15.3029 13.4868 15.1557 13.4868 15.0002C13.4868 14.7224 13.584 14.4863 13.7784 14.2918C13.9729 14.0974 14.209 14.0002 14.4868 14.0002C14.6423 14.0002 14.7923 14.0363 14.9368 14.1085C15.0812 14.1807 15.1979 14.2779 15.2868 14.4002C15.4756 14.2779 15.6701 14.1696 15.8701 14.0752C16.0701 13.9807 16.2812 13.9057 16.5034 13.8502C16.3034 13.4946 16.0256 13.2085 15.6701 12.9918C15.3145 12.7752 14.9201 12.6668 14.4868 12.6668C13.8312 12.6668 13.2784 12.8946 12.8284 13.3502C12.3784 13.8057 12.1534 14.3557 12.1534 15.0002C12.1534 15.4224 12.2562 15.8141 12.4618 16.1752C12.6673 16.5363 12.9479 16.8168 13.3034 17.0168ZM17.7868 20.3335L19.7868 18.3335L17.7868 16.3335L17.3201 16.8002L18.5201 18.0002H15.7868V18.6668H18.5034L17.3201 19.8668L17.7868 20.3335ZM17.7868 21.6668C16.8645 21.6668 16.0784 21.3418 15.4284 20.6918C14.7784 20.0418 14.4534 19.2557 14.4534 18.3335C14.4534 17.4113 14.7784 16.6252 15.4284 15.9752C16.0784 15.3252 16.8645 15.0002 17.7868 15.0002C18.709 15.0002 19.4951 15.3252 20.1451 15.9752C20.7951 16.6252 21.1201 17.4113 21.1201 18.3335C21.1201 19.2557 20.7951 20.0418 20.1451 20.6918C19.4951 21.3418 18.709 21.6668 17.7868 21.6668Z" fill="#FFE873"/>
</g>
</g>
<path d="M-7550.19 -659H2525.81V-661H-7550.19V-659ZM2526.81 -658V714H2528.81V-658H2526.81ZM2525.81 715H-7550.19V717H2525.81V715ZM-7551.19 714V-658H-7553.19V714H-7551.19ZM-7550.19 715C-7550.74 715 -7551.19 714.552 -7551.19 714H-7553.19C-7553.19 715.657 -7551.84 717 -7550.19 717V715ZM2526.81 714C2526.81 714.552 2526.37 715 2525.81 715V717C2527.47 717 2528.81 715.657 2528.81 714H2526.81ZM2525.81 -659C2526.37 -659 2526.81 -658.552 2526.81 -658H2528.81C2528.81 -659.657 2527.47 -661 2525.81 -661V-659ZM-7550.19 -661C-7551.84 -661 -7553.19 -659.657 -7553.19 -658H-7551.19C-7551.19 -658.552 -7550.74 -659 -7550.19 -659V-661Z" fill="white" fill-opacity="0.1"/>
<defs>
<clipPath id="clip0_9_38">
<rect width="1440" height="925" fill="white" transform="translate(-440.687 -434.5)"/>
</clipPath>
<clipPath id="clip1_9_38">
<rect width="1440" height="925" fill="white" transform="translate(-440.687 -434.5)"/>
</clipPath>
</defs>
</svg>
