<svg xmlns="http://www.w3.org/2000/svg" viewBox="0 0 64 80" x="0px" y="0px"><g data-name="Layer 1"><path d="M60,16V8a1,1,0,0,0-.61-.92l-7-3a1,1,0,0,0-.78,0l-7,3A1,1,0,0,0,44,8v8a1,1,0,0,0,.61.92l.74.32L42,20.59V20a1,1,0,0,0-1-1H21a.91.91,0,0,0-.46.13l-1.89-1.89.74-.32A1,1,0,0,0,20,16V8a1,1,0,0,0-.61-.92l-7-3a1,1,0,0,0-.78,0l-7,3A1,1,0,0,0,4,8v8a1,1,0,0,0,.61.92l7,3a1,1,0,0,0,.78,0l4.28-1.83L20,21.41V42a3.07,3.07,0,0,0,.05.53l-3.38,3.38-4.28-1.83a1,1,0,0,0-.78,0l-7,3A1,1,0,0,0,4,48v8a1,1,0,0,0,.61.92l7,3a1,1,0,0,0,.78,0l7-3A1,1,0,0,0,20,56V48a1,1,0,0,0-.61-.92l-.74-.32,2.46-2.45A3,3,0,0,0,23,45H41a3,3,0,0,0,1.89-.69l2.46,2.45-.74.32A1,1,0,0,0,44,48v8a1,1,0,0,0,.61.92l7,3a1,1,0,0,0,.78,0l7-3A1,1,0,0,0,60,56V48a1,1,0,0,0-.61-.92l-7-3a1,1,0,0,0-.78,0l-4.28,1.83L44,42.53A3.07,3.07,0,0,0,44,42V40a1,1,0,0,0-1-1H42V23.41l5.33-5.32,4.28,1.83a1,1,0,0,0,.78,0l7-3A1,1,0,0,0,60,16ZM13,11.66l5-2.14v5.82l-5,2.14ZM12,6.09,16.46,8,12,9.91,7.54,8ZM6,9.52l5,2.14v5.82L6,15.34Zm6,36.57L16.46,48,12,49.91,7.54,48ZM6,49.52l5,2.14v5.82L6,55.34Zm7,8V51.66l5-2.14v5.82Zm33-8,5,2.14v5.82l-5-2.14Zm7,8V51.66l5-2.14v5.82ZM52,46.09,56.46,48,52,49.91,47.54,48ZM41,43H25.82A3,3,0,0,0,26,42V41H42v1A1,1,0,0,1,41,43ZM25,39a1,1,0,0,0-1,1v2a1,1,0,0,1-2,0V21H40V39ZM52,6.09,56.46,8,52,9.91,47.54,8Zm-6,9.25V9.52l5,2.14v5.82Zm7,2.14V11.66l5-2.14v5.82Z"/><path d="M27.71,25.29a1,1,0,0,0-1.42,0l-2,2a1,1,0,0,0,0,1.42l2,2a1,1,0,0,0,1.42-1.42L26.41,28l1.3-1.29A1,1,0,0,0,27.71,25.29Z"/><path d="M35.71,25.29a1,1,0,0,0-1.42,1.42L35.59,28l-1.3,1.29a1,1,0,0,0,1.42,1.42l2-2a1,1,0,0,0,0-1.42Z"/><path d="M31,32.24l2-8A1,1,0,0,0,31,23.76l-2,8a1,1,0,0,0,1.94.48Z"/><path d="M27,35H25a1,1,0,0,0,0,2h2a1,1,0,0,0,0-2Z"/><path d="M37,35H31a1,1,0,0,0,0,2h6a1,1,0,0,0,0-2Z"/><path d="M23,13H41a1,1,0,0,0,0-2H23a1,1,0,0,0,0,2Z"/><path d="M41,51H23a1,1,0,0,0,0,2H41a1,1,0,0,0,0-2Z"/><path d="M51,23V41a1,1,0,0,0,2,0V23a1,1,0,0,0-2,0Z"/><path d="M13,41V23a1,1,0,0,0-2,0V41a1,1,0,0,0,2,0Z"/></g></svg>