<svg width="323" height="95" viewBox="0 0 323 95" fill="none" xmlns="http://www.w3.org/2000/svg">
<path d="M49.4776 60.2502V56.4002H54.3776V60.2502C54.3776 63.3769 53.421 65.8035 51.5076 67.5302C49.5943 69.2102 46.7243 70.0502 42.8976 70.0502C39.071 70.0502 36.1776 69.2102 34.2176 67.5302C32.2576 65.8035 31.2776 63.3769 31.2776 60.2502V32.2502C31.2776 29.1235 32.2343 26.7202 34.1476 25.0402C36.061 23.3135 38.931 22.4502 42.7576 22.4502C46.5843 22.4502 49.4777 23.3135 51.4377 25.0402C53.3976 26.7202 54.3776 29.1235 54.3776 32.2502V38.9002H49.4776V32.2502C49.4776 28.5169 47.261 26.6502 42.8276 26.6502C38.3943 26.6502 36.1776 28.5169 36.1776 32.2502V60.2502C36.1776 63.9835 38.3943 65.8502 42.8276 65.8502C47.261 65.8502 49.4776 63.9835 49.4776 60.2502Z" fill="#BA0061"/>
<path d="M78.6141 69.0002H73.7141V56.1202C67.3674 55.4202 64.1941 52.2002 64.1941 46.4602V23.5002H69.0941V46.4602C69.0941 50.1935 71.4274 52.0602 76.0941 52.0602C80.7607 52.0602 83.0941 50.1935 83.0941 46.4602V23.5002H87.9941V46.4602C87.9941 52.2002 84.8674 55.4202 78.6141 56.1202V69.0002Z" fill="#BA0061"/>
<path d="M103.725 69.0002H98.8249V23.5002H109.395C113.035 23.5002 115.788 24.3635 117.655 26.0902C119.568 27.8169 120.525 30.2202 120.525 33.3002V45.2002C120.525 48.3269 119.592 50.7535 117.725 52.4802C115.858 54.1602 113.082 55.0002 109.395 55.0002H103.725V69.0002ZM115.625 45.2002V33.3002C115.625 31.5269 115.088 30.1502 114.015 29.1702C112.942 28.1902 111.402 27.7002 109.395 27.7002H103.725V50.8002H109.395C113.548 50.8002 115.625 48.9335 115.625 45.2002Z" fill="#BA0061"/>
<path d="M136.622 69.0002H131.722V23.5002H136.622V43.8002H150.412V23.5002H155.312V69.0002H150.412V48.0002H136.622V69.0002Z" fill="#BA0061"/>
<path d="M186.47 60.2502V56.4002H191.37V60.2502C191.37 63.3769 190.413 65.8035 188.5 67.5302C186.587 69.2102 183.717 70.0502 179.89 70.0502C176.063 70.0502 173.17 69.2102 171.21 67.5302C169.25 65.8035 168.27 63.3769 168.27 60.2502V32.2502C168.27 29.1235 169.227 26.7202 171.14 25.0402C173.053 23.3135 175.923 22.4502 179.75 22.4502C183.577 22.4502 186.47 23.3135 188.43 25.0402C190.39 26.7202 191.37 29.1235 191.37 32.2502V47.6502H173.17V60.2502C173.17 63.9835 175.387 65.8502 179.82 65.8502C184.253 65.8502 186.47 63.9835 186.47 60.2502ZM173.17 32.2502V43.4502H186.47V32.2502C186.47 28.5169 184.253 26.6502 179.82 26.6502C175.387 26.6502 173.17 28.5169 173.17 32.2502Z" fill="#BA0061"/>
<path d="M209.22 69.0002H204.32V23.5002H206.42L208.45 28.6802C209.943 24.5269 212.323 22.4502 215.59 22.4502C221.143 22.4502 223.92 25.4835 223.92 31.5502V36.1002H219.23V31.2702C219.23 28.1902 217.947 26.6502 215.38 26.6502C213.84 26.6502 212.417 27.5369 211.11 29.3102C209.85 31.0835 209.22 33.6502 209.22 37.0102V69.0002Z" fill="#BA0061"/>
<circle cx="275.479" cy="47.477" r="47.3032" fill="#BA0061"/>
<circle cx="275.479" cy="47.477" r="47.3032" fill="#BA0061"/>
<path d="M249.611 65.1272H240.868V29.8273H249.611C252.435 29.8273 254.572 30.4971 256.02 31.8367C257.504 33.1763 258.246 35.0408 258.246 37.4304V57.5241C258.246 59.9498 257.522 61.8325 256.074 63.1721C254.626 64.4755 252.472 65.1272 249.611 65.1272ZM254.445 57.5241V37.4304C254.445 36.2718 254.01 35.2581 253.141 34.3891C252.309 33.5202 251.132 33.0858 249.611 33.0858H244.669V61.8687H249.611C251.132 61.8687 252.309 61.4524 253.141 60.6196C254.01 59.7507 254.445 58.7189 254.445 57.5241Z" fill="white"/>
<path d="M285.937 36.6157V58.3387C285.937 60.7645 285.158 62.6471 283.602 63.9867C282.081 65.2901 279.782 65.9418 276.704 65.9418C273.663 65.9418 271.364 65.2901 269.807 63.9867C268.251 62.6471 267.472 60.7645 267.472 58.3387V36.6157C267.472 34.19 268.233 32.3255 269.753 31.0221C271.31 29.6825 273.609 29.0127 276.65 29.0127C279.728 29.0127 282.045 29.6825 283.602 31.0221C285.158 32.3255 285.937 34.19 285.937 36.6157ZM282.135 58.3387V36.6157C282.135 33.7193 280.325 32.2711 276.704 32.2711C273.084 32.2711 271.274 33.7193 271.274 36.6157V58.3387C271.274 61.2351 273.084 62.6833 276.704 62.6833C280.325 62.6833 282.135 61.2351 282.135 58.3387Z" fill="white"/>
<path d="M310.091 29.8273V33.0858H303.031V65.1272H299.229V33.0858H292.169V29.8273H310.091Z" fill="white"/>
</svg>
