<svg width="123" height="45" viewBox="0 0 123 45" fill="none" xmlns="http://www.w3.org/2000/svg">
<path d="M34.3799 30.27C33.5069 30.27 32.6699 30.162 31.8689 29.946C31.0769 29.721 30.3614 29.397 29.7224 28.974C29.0834 28.542 28.5479 28.0155 28.1159 27.3945C27.6929 26.7645 27.4094 26.04 27.2654 25.221H28.4534C28.6514 26.103 29.0384 26.841 29.6144 27.435C30.1994 28.029 30.9059 28.4745 31.7339 28.7715C32.5619 29.0685 33.4439 29.217 34.3799 29.217C35.4959 29.217 36.4769 29.0505 37.3229 28.7175C38.1689 28.3755 38.8304 27.9075 39.3074 27.3135C39.7934 26.7195 40.0364 26.04 40.0364 25.275C40.0364 24.582 39.9149 23.9655 39.6719 23.4255C39.4289 22.8855 39.0509 22.4265 38.5379 22.0485C38.0339 21.6705 37.3724 21.378 36.5534 21.171L32.2874 20.091C30.8744 19.731 29.7854 19.191 29.0204 18.471C28.2554 17.742 27.8729 16.797 27.8729 15.636C27.8729 14.61 28.1384 13.692 28.6694 12.882C29.2004 12.063 29.9429 11.4195 30.8969 10.9515C31.8599 10.4745 32.9849 10.236 34.2719 10.236C35.7209 10.236 36.9269 10.506 37.8899 11.046C38.8619 11.577 39.5909 12.2565 40.0769 13.0845C40.5719 13.9125 40.8149 14.763 40.8059 15.636H39.6179C39.5189 14.556 39.1994 13.7055 38.6594 13.0845C38.1284 12.4545 37.4714 12.009 36.6884 11.748C35.9144 11.478 35.0954 11.343 34.2314 11.343C33.6554 11.343 33.0614 11.4285 32.4494 11.5995C31.8374 11.7615 31.2704 12.018 30.7484 12.369C30.2264 12.711 29.8034 13.152 29.4794 13.692C29.1554 14.223 28.9934 14.862 28.9934 15.609C28.9934 16.446 29.2859 17.13 29.8709 17.661C30.4559 18.192 31.4954 18.6555 32.9894 19.0515L37.0799 20.1315C37.8359 20.3295 38.4749 20.604 38.9969 20.955C39.5189 21.297 39.9374 21.693 40.2524 22.143C40.5764 22.593 40.8104 23.079 40.9544 23.601C41.0984 24.123 41.1704 24.663 41.1704 25.221C41.1704 26.139 40.9184 26.9805 40.4144 27.7455C39.9104 28.5105 39.1544 29.1225 38.1464 29.5815C37.1474 30.0405 35.8919 30.27 34.3799 30.27ZM45.904 16.041V30H44.8375V16.041H45.904ZM45.9985 10.506V12.126H44.716V10.506H45.9985ZM55.3302 34.617C53.4312 34.617 51.9012 34.2975 50.7402 33.6585C49.5882 33.0195 49.0122 32.034 49.0122 30.702C49.0122 30.171 49.1202 29.712 49.3362 29.325C49.5612 28.938 49.8267 28.6095 50.1327 28.3395C50.4477 28.0605 50.7402 27.8355 51.0102 27.6645C51.2892 27.4935 51.4782 27.363 51.5772 27.273C51.4062 27.165 51.2307 27.0525 51.0507 26.9355C50.8707 26.8185 50.7177 26.6745 50.5917 26.5035C50.4747 26.3235 50.4162 26.094 50.4162 25.815C50.4162 25.437 50.5917 25.0905 50.9427 24.7755C51.3027 24.4605 51.8202 24.204 52.4952 24.006C51.7752 23.61 51.1947 23.097 50.7537 22.467C50.3127 21.837 50.0922 21.108 50.0922 20.28C50.0922 19.389 50.2902 18.6105 50.6862 17.9445C51.0912 17.2695 51.7032 16.7475 52.5222 16.3785C53.3412 16.0095 54.3762 15.825 55.6272 15.825C56.4912 15.825 57.2337 15.933 57.8547 16.149C58.4757 16.365 59.0562 16.698 59.5962 17.148C59.6862 17.103 59.8707 17.022 60.1497 16.905C60.4377 16.779 60.7572 16.644 61.1082 16.5C61.4592 16.347 61.7742 16.212 62.0532 16.095C62.3412 15.969 62.5302 15.888 62.6202 15.852V17.418L60.1362 17.958C60.3252 18.291 60.4737 18.66 60.5817 19.065C60.6987 19.47 60.7572 19.875 60.7572 20.28C60.7572 21.117 60.5637 21.855 60.1767 22.494C59.7987 23.124 59.2137 23.6145 58.4217 23.9655C57.6387 24.3165 56.6442 24.492 55.4382 24.492C55.3842 24.492 55.3347 24.492 55.2897 24.492C55.2447 24.492 55.1952 24.492 55.1412 24.492C53.7552 24.519 52.8057 24.6675 52.2927 24.9375C51.7797 25.2075 51.5232 25.491 51.5232 25.788C51.5232 26.085 51.7257 26.301 52.1307 26.436C52.5357 26.571 53.2962 26.679 54.4122 26.76C54.8172 26.787 55.2807 26.814 55.8027 26.841C56.3247 26.868 56.9142 26.904 57.5712 26.949C58.7862 27.012 59.7627 27.3405 60.5007 27.9345C61.2477 28.5195 61.6212 29.379 61.6212 30.513C61.6212 31.737 61.1082 32.727 60.0822 33.483C59.0562 34.239 57.4722 34.617 55.3302 34.617ZM55.5732 33.618C57.0582 33.618 58.2507 33.3615 59.1507 32.8485C60.0597 32.3445 60.5142 31.566 60.5142 30.513C60.5142 29.82 60.2712 29.2485 59.7852 28.7985C59.3082 28.3485 58.5612 28.092 57.5442 28.029L52.9002 27.732C52.6212 27.714 52.2612 27.8265 51.8202 28.0695C51.3792 28.3035 50.9832 28.641 50.6322 29.082C50.2902 29.514 50.1192 30.018 50.1192 30.594C50.1192 31.494 50.5647 32.223 51.4557 32.781C52.3467 33.339 53.7192 33.618 55.5732 33.618ZM55.4652 23.493C56.7342 23.493 57.7557 23.2275 58.5297 22.6965C59.3127 22.1655 59.7042 21.342 59.7042 20.226C59.7042 19.065 59.3127 18.21 58.5297 17.661C57.7557 17.103 56.7342 16.824 55.4652 16.824C54.1692 16.824 53.1252 17.103 52.3332 17.661C51.5412 18.219 51.1452 19.074 51.1452 20.226C51.1452 21.288 51.5187 22.098 52.2657 22.656C53.0127 23.214 54.0792 23.493 55.4652 23.493ZM65.5162 30V16.041H66.4882V18.12C66.7312 17.679 67.0732 17.283 67.5142 16.932C67.9642 16.572 68.4997 16.2885 69.1207 16.0815C69.7417 15.8745 70.4257 15.771 71.1727 15.771C72.0907 15.771 72.9187 15.9555 73.6567 16.3245C74.4037 16.6935 74.9932 17.2605 75.4252 18.0255C75.8572 18.7905 76.0732 19.767 76.0732 20.955V30H75.0202V20.955C75.0202 19.533 74.6737 18.4845 73.9807 17.8095C73.2967 17.1345 72.3607 16.797 71.1727 16.797C70.3537 16.797 69.5932 16.923 68.8912 17.175C68.1892 17.427 67.6267 17.8095 67.2037 18.3225C66.7807 18.8355 66.5692 19.488 66.5692 20.28V30H65.5162ZM79.9219 23.277C79.9219 24.33 80.0974 25.311 80.4484 26.22C80.7994 27.12 81.3484 27.849 82.0954 28.407C82.8424 28.965 83.8054 29.244 84.9844 29.244C86.0914 29.244 87.0364 28.9785 87.8194 28.4475C88.6024 27.9165 89.0749 27.192 89.2369 26.274H90.3844C90.2044 27.174 89.8444 27.921 89.3044 28.515C88.7644 29.109 88.1164 29.55 87.3604 29.838C86.6134 30.126 85.8214 30.27 84.9844 30.27C83.7604 30.27 82.6804 29.9955 81.7444 29.4465C80.8174 28.8885 80.0884 28.0785 79.5574 27.0165C79.0354 25.9545 78.7744 24.663 78.7744 23.142C78.7744 21.603 79.0084 20.2845 79.4764 19.1865C79.9534 18.0795 80.6419 17.2335 81.5419 16.6485C82.4509 16.0635 83.5444 15.771 84.8224 15.771C86.0284 15.771 87.0544 16.0365 87.9004 16.5675C88.7554 17.0985 89.4079 17.868 89.8579 18.876C90.3169 19.875 90.5464 21.09 90.5464 22.521V23.277H79.9219ZM79.9489 22.251H89.4259C89.4259 21.216 89.2594 20.289 88.9264 19.47C88.5934 18.642 88.0849 17.9895 87.4009 17.5125C86.7169 17.0355 85.8484 16.797 84.7954 16.797C83.6524 16.797 82.7209 17.0715 82.0009 17.6205C81.2899 18.1605 80.7679 18.849 80.4349 19.686C80.1019 20.523 79.9399 21.378 79.9489 22.251ZM93.5202 30V16.041H94.4922V18.12C94.7352 17.49 95.0727 17.0085 95.5047 16.6755C95.9457 16.3335 96.4182 16.0995 96.9222 15.9735C97.4262 15.8385 97.8987 15.771 98.3397 15.771C98.6187 15.771 98.8977 15.7935 99.1767 15.8385C99.4557 15.8745 99.6807 15.942 99.8517 16.041V17.121C99.6627 17.031 99.4107 16.968 99.0957 16.932C98.7897 16.896 98.5377 16.878 98.3397 16.878C98.0067 16.878 97.6242 16.9275 97.1922 17.0265C96.7692 17.1165 96.3552 17.2875 95.9502 17.5395C95.5542 17.7825 95.2257 18.129 94.9647 18.579C94.7037 19.02 94.5732 19.587 94.5732 20.28V30H93.5202ZM106.65 30.27C105.678 30.27 104.805 30.126 104.031 29.838C103.266 29.55 102.645 29.109 102.168 28.515C101.7 27.921 101.412 27.174 101.304 26.274H102.424C102.55 26.868 102.784 27.39 103.126 27.84C103.477 28.281 103.945 28.6275 104.53 28.8795C105.124 29.1225 105.831 29.244 106.65 29.244C107.775 29.244 108.679 29.0145 109.363 28.5555C110.056 28.0875 110.403 27.372 110.403 26.409C110.403 25.761 110.236 25.2435 109.903 24.8565C109.57 24.4605 109.084 24.1725 108.445 23.9925L105.124 23.0745C104.107 22.7865 103.302 22.3815 102.708 21.8595C102.114 21.3375 101.817 20.613 101.817 19.686C101.817 18.903 101.988 18.219 102.33 17.634C102.681 17.049 103.207 16.5945 103.909 16.2705C104.62 15.9375 105.516 15.771 106.596 15.771C107.91 15.771 108.981 16.0725 109.809 16.6755C110.646 17.2785 111.096 18.21 111.159 19.47H110.038C109.948 18.669 109.615 18.0255 109.039 17.5395C108.472 17.0445 107.658 16.797 106.596 16.797C105.498 16.797 104.611 17.031 103.936 17.499C103.261 17.967 102.924 18.696 102.924 19.686C102.924 20.316 103.14 20.811 103.572 21.171C104.013 21.522 104.625 21.8055 105.408 22.0215L108.729 22.9395C109.242 23.0835 109.674 23.2725 110.025 23.5065C110.376 23.7405 110.659 24.006 110.875 24.303C111.1 24.6 111.262 24.924 111.361 25.275C111.46 25.626 111.51 25.986 111.51 26.355C111.51 27.138 111.334 27.822 110.983 28.407C110.632 28.992 110.097 29.451 109.377 29.784C108.666 30.108 107.757 30.27 106.65 30.27Z" fill="white"/>
<path d="M7.33196 10.7641L21.9203 30L3.75422 10.7641L7.33196 10.7641Z" fill="url(#paint0_linear_156_6366)"/>
<path d="M4.58048 30L0.707483 30L23.6873 9.86027L4.58048 30Z" fill="url(#paint1_linear_156_6366)"/>
<defs>
<linearGradient id="paint0_linear_156_6366" x1="12.8373" y1="30" x2="12.8373" y2="10.7641" gradientUnits="userSpaceOnUse">
<stop stop-color="#E6007A"/>
<stop offset="1" stop-color="#FAC902"/>
</linearGradient>
<linearGradient id="paint1_linear_156_6366" x1="12.1974" y1="30" x2="12.1974" y2="9.86027" gradientUnits="userSpaceOnUse">
<stop stop-color="#E6007A"/>
<stop offset="1" stop-color="#FAC902"/>
</linearGradient>
</defs>
</svg>
