<svg width="123" height="45" viewBox="0 0 123 45" fill="none" xmlns="http://www.w3.org/2000/svg">
<path d="M34.0503 28.9155C33.2096 28.9155 32.4036 28.8115 31.6323 28.6035C30.8696 28.3868 30.1806 28.0748 29.5653 27.6675C28.95 27.2515 28.4343 26.7445 28.0183 26.1465C27.611 25.5398 27.338 24.8422 27.1993 24.0535H28.3433C28.534 24.9028 28.9066 25.6135 29.4613 26.1855C30.0246 26.7575 30.705 27.1865 31.5023 27.4725C32.2996 27.7585 33.149 27.9015 34.0503 27.9015C35.125 27.9015 36.0696 27.7412 36.8843 27.4205C37.699 27.0912 38.336 26.6405 38.7953 26.0685C39.2633 25.4965 39.4973 24.8422 39.4973 24.1055C39.4973 23.4382 39.3803 22.8445 39.1463 22.3245C38.9123 21.8045 38.5483 21.3625 38.0543 20.9985C37.569 20.6345 36.932 20.3528 36.1433 20.1535L32.0353 19.1135C30.6746 18.7668 29.626 18.2468 28.8893 17.5535C28.1526 16.8515 27.7843 15.9415 27.7843 14.8235C27.7843 13.8355 28.04 12.9515 28.5513 12.1715C29.0626 11.3828 29.7776 10.7632 30.6963 10.3125C31.6236 9.85323 32.707 9.62354 33.9463 9.62354C35.3416 9.62354 36.503 9.88353 37.4303 10.4035C38.3663 10.9148 39.0683 11.5692 39.5363 12.3665C40.013 13.1638 40.247 13.9828 40.2383 14.8235H39.0943C38.999 13.7835 38.6913 12.9645 38.1713 12.3665C37.66 11.7598 37.0273 11.3308 36.2733 11.0795C35.528 10.8195 34.7393 10.6895 33.9073 10.6895C33.3526 10.6895 32.7806 10.7718 32.1913 10.9365C31.602 11.0925 31.056 11.3395 30.5533 11.6775C30.0506 12.0068 29.6433 12.4315 29.3313 12.9515C29.0193 13.4628 28.8633 14.0782 28.8633 14.7975C28.8633 15.6035 29.145 16.2622 29.7083 16.7735C30.2716 17.2848 31.2726 17.7312 32.7113 18.1125L36.6503 19.1525C37.3783 19.3432 37.9936 19.6075 38.4963 19.9455C38.999 20.2748 39.402 20.6562 39.7053 21.0895C40.0173 21.5228 40.2426 21.9908 40.3813 22.4935C40.52 22.9962 40.5893 23.5162 40.5893 24.0535C40.5893 24.9375 40.3466 25.7478 39.8613 26.4845C39.376 27.2212 38.648 27.8105 37.6773 28.2525C36.7153 28.6945 35.5063 28.9155 34.0503 28.9155ZM45.1476 15.2135V28.6555H44.1206V15.2135H45.1476ZM45.2386 9.88353V11.4435H44.0036V9.88353H45.2386ZM54.2247 33.1015C52.396 33.1015 50.9227 32.7938 49.8047 32.1785C48.6953 31.5632 48.1407 30.6142 48.1407 29.3315C48.1407 28.8202 48.2447 28.3782 48.4527 28.0055C48.6693 27.6328 48.925 27.3165 49.2197 27.0565C49.523 26.7878 49.8047 26.5712 50.0647 26.4065C50.3333 26.2418 50.5153 26.1162 50.6107 26.0295C50.446 25.9255 50.277 25.8172 50.1037 25.7045C49.9303 25.5918 49.783 25.4532 49.6617 25.2885C49.549 25.1152 49.4927 24.8942 49.4927 24.6255C49.4927 24.2615 49.6617 23.9278 49.9997 23.6245C50.3463 23.3212 50.8447 23.0742 51.4947 22.8835C50.8013 22.5022 50.2423 22.0082 49.8177 21.4015C49.393 20.7948 49.1807 20.0928 49.1807 19.2955C49.1807 18.4375 49.3713 17.6878 49.7527 17.0465C50.1427 16.3965 50.732 15.8938 51.5207 15.5385C52.3093 15.1832 53.306 15.0055 54.5107 15.0055C55.3427 15.0055 56.0577 15.1095 56.6557 15.3175C57.2537 15.5255 57.8127 15.8462 58.3327 16.2795C58.4193 16.2362 58.597 16.1582 58.8657 16.0455C59.143 15.9242 59.4507 15.7942 59.7887 15.6555C60.1267 15.5082 60.43 15.3782 60.6987 15.2655C60.976 15.1442 61.158 15.0662 61.2447 15.0315V16.5395L58.8527 17.0595C59.0347 17.3802 59.1777 17.7355 59.2817 18.1255C59.3943 18.5155 59.4507 18.9055 59.4507 19.2955C59.4507 20.1015 59.2643 20.8122 58.8917 21.4275C58.5277 22.0342 57.9643 22.5065 57.2017 22.8445C56.4477 23.1825 55.49 23.3515 54.3287 23.3515C54.2767 23.3515 54.229 23.3515 54.1857 23.3515C54.1423 23.3515 54.0947 23.3515 54.0427 23.3515C52.708 23.3775 51.7937 23.5205 51.2997 23.7805C50.8057 24.0405 50.5587 24.3135 50.5587 24.5995C50.5587 24.8855 50.7537 25.0935 51.1437 25.2235C51.5337 25.3535 52.266 25.4575 53.3407 25.5355C53.7307 25.5615 54.177 25.5875 54.6797 25.6135C55.1823 25.6395 55.75 25.6742 56.3827 25.7175C57.5527 25.7782 58.493 26.0945 59.2037 26.6665C59.923 27.2298 60.2827 28.0575 60.2827 29.1495C60.2827 30.3282 59.7887 31.2815 58.8007 32.0095C57.8127 32.7375 56.2873 33.1015 54.2247 33.1015ZM54.4587 32.1395C55.8887 32.1395 57.037 31.8925 57.9037 31.3985C58.779 30.9132 59.2167 30.1635 59.2167 29.1495C59.2167 28.4822 58.9827 27.9318 58.5147 27.4985C58.0553 27.0652 57.336 26.8182 56.3567 26.7575L51.8847 26.4715C51.616 26.4542 51.2693 26.5625 50.8447 26.7965C50.42 27.0218 50.0387 27.3468 49.7007 27.7715C49.3713 28.1875 49.2067 28.6728 49.2067 29.2275C49.2067 30.0942 49.6357 30.7962 50.4937 31.3335C51.3517 31.8708 52.6733 32.1395 54.4587 32.1395ZM54.3547 22.3895C55.5767 22.3895 56.5603 22.1338 57.3057 21.6225C58.0597 21.1112 58.4367 20.3182 58.4367 19.2435C58.4367 18.1255 58.0597 17.3022 57.3057 16.7735C56.5603 16.2362 55.5767 15.9675 54.3547 15.9675C53.1067 15.9675 52.1013 16.2362 51.3387 16.7735C50.576 17.3108 50.1947 18.1342 50.1947 19.2435C50.1947 20.2662 50.5543 21.0462 51.2737 21.5835C51.993 22.1208 53.02 22.3895 54.3547 22.3895ZM64.0334 28.6555V15.2135H64.9694V17.2155C65.2034 16.7908 65.5327 16.4095 65.9574 16.0715C66.3907 15.7248 66.9064 15.4518 67.5044 15.2525C68.1024 15.0532 68.761 14.9535 69.4804 14.9535C70.3644 14.9535 71.1617 15.1312 71.8724 15.4865C72.5917 15.8418 73.1594 16.3878 73.5754 17.1245C73.9914 17.8612 74.1994 18.8015 74.1994 19.9455V28.6555H73.1854V19.9455C73.1854 18.5762 72.8517 17.5665 72.1844 16.9165C71.5257 16.2665 70.6244 15.9415 69.4804 15.9415C68.6917 15.9415 67.9594 16.0628 67.2834 16.3055C66.6074 16.5482 66.0657 16.9165 65.6584 17.4105C65.251 17.9045 65.0474 18.5328 65.0474 19.2955V28.6555H64.0334ZM77.9056 22.1815C77.9056 23.1955 78.0746 24.1402 78.4126 25.0155C78.7506 25.8822 79.2793 26.5842 79.9986 27.1215C80.7179 27.6588 81.6453 27.9275 82.7806 27.9275C83.8466 27.9275 84.7566 27.6718 85.5106 27.1605C86.2646 26.6492 86.7196 25.9515 86.8756 25.0675H87.9806C87.8073 25.9342 87.4606 26.6535 86.9406 27.2255C86.4206 27.7975 85.7966 28.2222 85.0686 28.4995C84.3493 28.7768 83.5866 28.9155 82.7806 28.9155C81.6019 28.9155 80.5619 28.6512 79.6606 28.1225C78.7679 27.5852 78.0659 26.8052 77.5546 25.7825C77.0519 24.7598 76.8006 23.5162 76.8006 22.0515C76.8006 20.5695 77.0259 19.2998 77.4766 18.2425C77.9359 17.1765 78.5989 16.3618 79.4656 15.7985C80.3409 15.2352 81.3939 14.9535 82.6246 14.9535C83.7859 14.9535 84.7739 15.2092 85.5886 15.7205C86.4119 16.2318 87.0403 16.9728 87.4736 17.9435C87.9156 18.9055 88.1366 20.0755 88.1366 21.4535V22.1815H77.9056ZM77.9316 21.1935H87.0576C87.0576 20.1968 86.8973 19.3042 86.5766 18.5155C86.2559 17.7182 85.7663 17.0898 85.1076 16.6305C84.4489 16.1712 83.6126 15.9415 82.5986 15.9415C81.4979 15.9415 80.6009 16.2058 79.9076 16.7345C79.2229 17.2545 78.7203 17.9175 78.3996 18.7235C78.0789 19.5295 77.9229 20.3528 77.9316 21.1935ZM91.0003 28.6555V15.2135H91.9363V17.2155C92.1703 16.6088 92.4953 16.1452 92.9113 15.8245C93.3359 15.4952 93.7909 15.2698 94.2763 15.1485C94.7616 15.0185 95.2166 14.9535 95.6413 14.9535C95.9099 14.9535 96.1786 14.9752 96.4473 15.0185C96.7159 15.0532 96.9326 15.1182 97.0973 15.2135V16.2535C96.9153 16.1668 96.6726 16.1062 96.3693 16.0715C96.0746 16.0368 95.8319 16.0195 95.6413 16.0195C95.3206 16.0195 94.9523 16.0672 94.5363 16.1625C94.1289 16.2492 93.7303 16.4138 93.3403 16.6565C92.9589 16.8905 92.6426 17.2242 92.3913 17.6575C92.1399 18.0822 92.0143 18.6282 92.0143 19.2955V28.6555H91.0003ZM103.644 28.9155C102.708 28.9155 101.867 28.7768 101.122 28.4995C100.385 28.2222 99.7869 27.7975 99.3276 27.2255C98.8769 26.6535 98.5996 25.9342 98.4956 25.0675H99.5746C99.6959 25.6395 99.9212 26.1422 100.251 26.5755C100.589 27.0002 101.039 27.3338 101.603 27.5765C102.175 27.8105 102.855 27.9275 103.644 27.9275C104.727 27.9275 105.598 27.7065 106.257 27.2645C106.924 26.8138 107.258 26.1248 107.258 25.1975C107.258 24.5735 107.097 24.0752 106.777 23.7025C106.456 23.3212 105.988 23.0438 105.373 22.8705L102.175 21.9865C101.195 21.7092 100.42 21.3192 99.8476 20.8165C99.2756 20.3138 98.9896 19.6162 98.9896 18.7235C98.9896 17.9695 99.1542 17.3108 99.4836 16.7475C99.8216 16.1842 100.329 15.7465 101.005 15.4345C101.689 15.1138 102.552 14.9535 103.592 14.9535C104.857 14.9535 105.888 15.2438 106.686 15.8245C107.492 16.4052 107.925 17.3022 107.986 18.5155H106.907C106.82 17.7442 106.499 17.1245 105.945 16.6565C105.399 16.1798 104.614 15.9415 103.592 15.9415C102.534 15.9415 101.681 16.1668 101.031 16.6175C100.381 17.0682 100.056 17.7702 100.056 18.7235C100.056 19.3302 100.264 19.8068 100.68 20.1535C101.104 20.4915 101.694 20.7645 102.448 20.9725L105.646 21.8565C106.14 21.9952 106.556 22.1772 106.894 22.4025C107.232 22.6278 107.505 22.8835 107.713 23.1695C107.929 23.4555 108.085 23.7675 108.181 24.1055C108.276 24.4435 108.324 24.7902 108.324 25.1455C108.324 25.8995 108.155 26.5582 107.817 27.1215C107.479 27.6848 106.963 28.1268 106.27 28.4475C105.585 28.7595 104.71 28.9155 103.644 28.9155Z" fill="white"/>
<path d="M7.33201 9.41992L21.9204 28.6558L3.75427 9.41992H7.33201Z" fill="url(#paint0_linear_1136_10965)"/>
<path d="M4.5804 28.6558H0.707397L23.6873 8.51611L4.5804 28.6558Z" fill="url(#paint1_linear_1136_10965)"/>
<rect opacity="0.3" x="84.3882" y="32.6377" width="34.994" height="12" rx="6" fill="#FFE873"/>
<path d="M90.3742 42.1377V34.865H92.9168C93.4235 34.865 93.8413 34.9526 94.1704 35.1278C94.4994 35.3006 94.7445 35.5338 94.9055 35.8273C95.0664 36.1185 95.1469 36.4417 95.1469 36.7968C95.1469 37.1093 95.0913 37.3673 94.98 37.5709C94.8711 37.7745 94.7267 37.9355 94.5468 38.0539C94.3692 38.1723 94.1763 38.2599 93.968 38.3167V38.3877C94.1905 38.4019 94.4142 38.48 94.6391 38.6221C94.864 38.7641 95.0522 38.9677 95.2038 39.2329C95.3553 39.498 95.431 39.8224 95.431 40.2059C95.431 40.5705 95.3482 40.8983 95.1825 41.1895C95.0167 41.4807 94.7551 41.7116 94.3976 41.882C94.0402 42.0525 93.575 42.1377 93.0021 42.1377H90.3742ZM91.2549 41.3564H93.0021C93.5773 41.3564 93.9857 41.2452 94.2272 41.0226C94.471 40.7977 94.593 40.5255 94.593 40.2059C94.593 39.9597 94.5302 39.7324 94.4048 39.5241C94.2793 39.3134 94.1005 39.1453 93.8685 39.0198C93.6365 38.892 93.3619 38.828 93.0447 38.828H91.2549V41.3564ZM91.2549 38.061H92.8884C93.1536 38.061 93.3927 38.0089 93.6057 37.9047C93.8212 37.8006 93.9916 37.6538 94.1171 37.4644C94.245 37.275 94.3089 37.0525 94.3089 36.7968C94.3089 36.4772 94.1976 36.2061 93.9751 35.9836C93.7525 35.7587 93.3998 35.6462 92.9168 35.6462H91.2549V38.061ZM96.8781 42.1377V34.865H101.267V35.6462H97.7588V38.1036H101.04V38.8849H97.7588V41.3564H101.324V42.1377H96.8781ZM102.457 35.6462V34.865H107.911V35.6462H105.625V42.1377H104.744V35.6462H102.457ZM108.719 42.1377H107.796L110.467 34.865H111.376L114.046 42.1377H113.123L110.949 36.0155H110.893L108.719 42.1377ZM109.06 39.2968H112.782V40.078H109.06V39.2968Z" fill="#FFE873"/>
<defs>
<linearGradient id="paint0_linear_1136_10965" x1="23.518" y1="27.4557" x2="8.86742" y2="7.48948" gradientUnits="userSpaceOnUse">
<stop stop-color="white"/>
<stop offset="1" stop-color="#FFE873"/>
</linearGradient>
<linearGradient id="paint1_linear_1136_10965" x1="23.6873" y1="4.24236" x2="-1.80598" y2="24.4847" gradientUnits="userSpaceOnUse">
<stop stop-color="white"/>
<stop offset="1" stop-color="#FFE873"/>
</linearGradient>
</defs>
</svg>
