<svg width="123" height="45" viewBox="0 0 123 45" fill="none" xmlns="http://www.w3.org/2000/svg">
<path d="M34.0504 30.26C33.2097 30.26 32.4037 30.156 31.6324 29.948C30.8697 29.7313 30.1807 29.4193 29.5654 29.012C28.9501 28.596 28.4344 28.089 28.0184 27.491C27.6111 26.8843 27.3381 26.1867 27.1994 25.398H28.3434C28.5341 26.2473 28.9067 26.958 29.4614 27.53C30.0247 28.102 30.7051 28.531 31.5024 28.817C32.2997 29.103 33.1491 29.246 34.0504 29.246C35.1251 29.246 36.0697 29.0857 36.8844 28.765C37.6991 28.4357 38.3361 27.985 38.7954 27.413C39.2634 26.841 39.4974 26.1867 39.4974 25.45C39.4974 24.7827 39.3804 24.189 39.1464 23.669C38.9124 23.149 38.5484 22.707 38.0544 22.343C37.5691 21.979 36.9321 21.6973 36.1434 21.498L32.0354 20.458C30.6747 20.1113 29.6261 19.5913 28.8894 18.898C28.1527 18.196 27.7844 17.286 27.7844 16.168C27.7844 15.18 28.0401 14.296 28.5514 13.516C29.0627 12.7273 29.7777 12.1077 30.6964 11.657C31.6237 11.1977 32.7071 10.968 33.9464 10.968C35.3417 10.968 36.5031 11.228 37.4304 11.748C38.3664 12.2593 39.0684 12.9137 39.5364 13.711C40.0131 14.5083 40.2471 15.3273 40.2384 16.168H39.0944C38.9991 15.128 38.6914 14.309 38.1714 13.711C37.6601 13.1043 37.0274 12.6753 36.2734 12.424C35.5281 12.164 34.7394 12.034 33.9074 12.034C33.3527 12.034 32.7807 12.1163 32.1914 12.281C31.6021 12.437 31.0561 12.684 30.5534 13.022C30.0507 13.3513 29.6434 13.776 29.3314 14.296C29.0194 14.8073 28.8634 15.4227 28.8634 16.142C28.8634 16.948 29.1451 17.6067 29.7084 18.118C30.2717 18.6293 31.2727 19.0757 32.7114 19.457L36.6504 20.497C37.3784 20.6877 37.9937 20.952 38.4964 21.29C38.9991 21.6193 39.4021 22.0007 39.7054 22.434C40.0174 22.8673 40.2427 23.3353 40.3814 23.838C40.5201 24.3407 40.5894 24.8607 40.5894 25.398C40.5894 26.282 40.3467 27.0923 39.8614 27.829C39.3761 28.5657 38.6481 29.155 37.6774 29.597C36.7154 30.039 35.5064 30.26 34.0504 30.26ZM45.1477 16.558V30H44.1207V16.558H45.1477ZM45.2387 11.228V12.788H44.0037V11.228H45.2387ZM54.2248 34.446C52.3961 34.446 50.9228 34.1383 49.8048 33.523C48.6954 32.9077 48.1408 31.9587 48.1408 30.676C48.1408 30.1647 48.2448 29.7227 48.4528 29.35C48.6694 28.9773 48.9251 28.661 49.2198 28.401C49.5231 28.1323 49.8048 27.9157 50.0648 27.751C50.3334 27.5863 50.5154 27.4607 50.6108 27.374C50.4461 27.27 50.2771 27.1617 50.1038 27.049C49.9304 26.9363 49.7831 26.7977 49.6618 26.633C49.5491 26.4597 49.4928 26.2387 49.4928 25.97C49.4928 25.606 49.6618 25.2723 49.9998 24.969C50.3464 24.6657 50.8448 24.4187 51.4948 24.228C50.8014 23.8467 50.2424 23.3527 49.8178 22.746C49.3931 22.1393 49.1808 21.4373 49.1808 20.64C49.1808 19.782 49.3714 19.0323 49.7528 18.391C50.1428 17.741 50.7321 17.2383 51.5208 16.883C52.3094 16.5277 53.3061 16.35 54.5108 16.35C55.3428 16.35 56.0578 16.454 56.6558 16.662C57.2538 16.87 57.8128 17.1907 58.3328 17.624C58.4194 17.5807 58.5971 17.5027 58.8658 17.39C59.1431 17.2687 59.4508 17.1387 59.7888 17C60.1268 16.8527 60.4301 16.7227 60.6988 16.61C60.9761 16.4887 61.1581 16.4107 61.2448 16.376V17.884L58.8528 18.404C59.0348 18.7247 59.1778 19.08 59.2818 19.47C59.3944 19.86 59.4508 20.25 59.4508 20.64C59.4508 21.446 59.2644 22.1567 58.8918 22.772C58.5278 23.3787 57.9644 23.851 57.2018 24.189C56.4478 24.527 55.4901 24.696 54.3288 24.696C54.2768 24.696 54.2291 24.696 54.1858 24.696C54.1424 24.696 54.0948 24.696 54.0428 24.696C52.7081 24.722 51.7938 24.865 51.2998 25.125C50.8058 25.385 50.5588 25.658 50.5588 25.944C50.5588 26.23 50.7538 26.438 51.1438 26.568C51.5338 26.698 52.2661 26.802 53.3408 26.88C53.7308 26.906 54.1771 26.932 54.6798 26.958C55.1824 26.984 55.7501 27.0187 56.3828 27.062C57.5528 27.1227 58.4931 27.439 59.2038 28.011C59.9231 28.5743 60.2828 29.402 60.2828 30.494C60.2828 31.6727 59.7888 32.626 58.8008 33.354C57.8128 34.082 56.2874 34.446 54.2248 34.446ZM54.4588 33.484C55.8888 33.484 57.0371 33.237 57.9038 32.743C58.7791 32.2577 59.2168 31.508 59.2168 30.494C59.2168 29.8267 58.9828 29.2763 58.5148 28.843C58.0554 28.4097 57.3361 28.1627 56.3568 28.102L51.8848 27.816C51.6161 27.7987 51.2694 27.907 50.8448 28.141C50.4201 28.3663 50.0388 28.6913 49.7008 29.116C49.3714 29.532 49.2068 30.0173 49.2068 30.572C49.2068 31.4387 49.6358 32.1407 50.4938 32.678C51.3518 33.2153 52.6734 33.484 54.4588 33.484ZM54.3548 23.734C55.5768 23.734 56.5604 23.4783 57.3058 22.967C58.0598 22.4557 58.4368 21.6627 58.4368 20.588C58.4368 19.47 58.0598 18.6467 57.3058 18.118C56.5604 17.5807 55.5768 17.312 54.3548 17.312C53.1068 17.312 52.1014 17.5807 51.3388 18.118C50.5761 18.6553 50.1948 19.4787 50.1948 20.588C50.1948 21.6107 50.5544 22.3907 51.2738 22.928C51.9931 23.4653 53.0201 23.734 54.3548 23.734ZM64.0335 30V16.558H64.9695V18.56C65.2035 18.1353 65.5328 17.754 65.9575 17.416C66.3908 17.0693 66.9065 16.7963 67.5045 16.597C68.1025 16.3977 68.7611 16.298 69.4805 16.298C70.3645 16.298 71.1618 16.4757 71.8725 16.831C72.5918 17.1863 73.1595 17.7323 73.5755 18.469C73.9915 19.2057 74.1995 20.146 74.1995 21.29V30H73.1855V21.29C73.1855 19.9207 72.8518 18.911 72.1845 18.261C71.5258 17.611 70.6245 17.286 69.4805 17.286C68.6918 17.286 67.9595 17.4073 67.2835 17.65C66.6075 17.8927 66.0658 18.261 65.6585 18.755C65.2511 19.249 65.0475 19.8773 65.0475 20.64V30H64.0335ZM77.9057 23.526C77.9057 24.54 78.0747 25.4847 78.4127 26.36C78.7507 27.2267 79.2794 27.9287 79.9987 28.466C80.718 29.0033 81.6454 29.272 82.7807 29.272C83.8467 29.272 84.7567 29.0163 85.5107 28.505C86.2647 27.9937 86.7197 27.296 86.8757 26.412H87.9807C87.8074 27.2787 87.4607 27.998 86.9407 28.57C86.4207 29.142 85.7967 29.5667 85.0687 29.844C84.3494 30.1213 83.5867 30.26 82.7807 30.26C81.602 30.26 80.562 29.9957 79.6607 29.467C78.768 28.9297 78.066 28.1497 77.5547 27.127C77.052 26.1043 76.8007 24.8607 76.8007 23.396C76.8007 21.914 77.026 20.6443 77.4767 19.587C77.936 18.521 78.599 17.7063 79.4657 17.143C80.341 16.5797 81.394 16.298 82.6247 16.298C83.786 16.298 84.774 16.5537 85.5887 17.065C86.412 17.5763 87.0404 18.3173 87.4737 19.288C87.9157 20.25 88.1367 21.42 88.1367 22.798V23.526H77.9057ZM77.9317 22.538H87.0577C87.0577 21.5413 86.8974 20.6487 86.5767 19.86C86.256 19.0627 85.7664 18.4343 85.1077 17.975C84.449 17.5157 83.6127 17.286 82.5987 17.286C81.498 17.286 80.601 17.5503 79.9077 18.079C79.223 18.599 78.7204 19.262 78.3997 20.068C78.079 20.874 77.923 21.6973 77.9317 22.538ZM91.0004 30V16.558H91.9364V18.56C92.1704 17.9533 92.4954 17.4897 92.9114 17.169C93.336 16.8397 93.791 16.6143 94.2764 16.493C94.7617 16.363 95.2167 16.298 95.6414 16.298C95.91 16.298 96.1787 16.3197 96.4474 16.363C96.716 16.3977 96.9327 16.4627 97.0974 16.558V17.598C96.9154 17.5113 96.6727 17.4507 96.3694 17.416C96.0747 17.3813 95.832 17.364 95.6414 17.364C95.3207 17.364 94.9524 17.4117 94.5364 17.507C94.129 17.5937 93.7304 17.7583 93.3404 18.001C92.959 18.235 92.6427 18.5687 92.3914 19.002C92.14 19.4267 92.0144 19.9727 92.0144 20.64V30H91.0004ZM103.644 30.26C102.708 30.26 101.867 30.1213 101.122 29.844C100.385 29.5667 99.787 29.142 99.3277 28.57C98.877 27.998 98.5997 27.2787 98.4957 26.412H99.5747C99.696 26.984 99.9213 27.4867 100.251 27.92C100.589 28.3447 101.039 28.6783 101.603 28.921C102.175 29.155 102.855 29.272 103.644 29.272C104.727 29.272 105.598 29.051 106.257 28.609C106.924 28.1583 107.258 27.4693 107.258 26.542C107.258 25.918 107.097 25.4197 106.777 25.047C106.456 24.6657 105.988 24.3883 105.373 24.215L102.175 23.331C101.195 23.0537 100.42 22.6637 99.8477 22.161C99.2757 21.6583 98.9897 20.9607 98.9897 20.068C98.9897 19.314 99.1543 18.6553 99.4837 18.092C99.8217 17.5287 100.329 17.091 101.005 16.779C101.689 16.4583 102.552 16.298 103.592 16.298C104.857 16.298 105.888 16.5883 106.686 17.169C107.492 17.7497 107.925 18.6467 107.986 19.86H106.907C106.82 19.0887 106.499 18.469 105.945 18.001C105.399 17.5243 104.614 17.286 103.592 17.286C102.534 17.286 101.681 17.5113 101.031 17.962C100.381 18.4127 100.056 19.1147 100.056 20.068C100.056 20.6747 100.264 21.1513 100.68 21.498C101.104 21.836 101.694 22.109 102.448 22.317L105.646 23.201C106.14 23.3397 106.556 23.5217 106.894 23.747C107.232 23.9723 107.505 24.228 107.713 24.514C107.929 24.8 108.085 25.112 108.181 25.45C108.276 25.788 108.324 26.1347 108.324 26.49C108.324 27.244 108.155 27.9027 107.817 28.466C107.479 29.0293 106.963 29.4713 106.27 29.792C105.585 30.104 104.71 30.26 103.644 30.26Z" fill="white"/>
<path d="M7.33196 10.7641L21.9203 30L3.75422 10.7641L7.33196 10.7641Z" fill="url(#paint0_linear_156_6366)"/>
<path d="M4.58042 30L0.707422 30L23.6873 9.86027L4.58042 30Z" fill="url(#paint1_linear_156_6366)"/>
<defs>
<linearGradient id="paint0_linear_156_6366" x1="23.5179" y1="28.7999" x2="8.86737" y2="8.83366" gradientUnits="userSpaceOnUse">
<stop stop-color="white"/>
<stop offset="1" stop-color="#FFE873"/>
<stop offset="1" stop-color="#FFE873"/>
</linearGradient>
<linearGradient id="paint1_linear_156_6366" x1="23.6873" y1="5.58652" x2="-1.80595" y2="25.8289" gradientUnits="userSpaceOnUse">
<stop stop-color="white"/>
<stop offset="1" stop-color="#FFE873"/>
</linearGradient>
</defs>
</svg>
